<svg width="1982" height="660" viewBox="0 0 1982 660" fill="none" xmlns="http://www.w3.org/2000/svg">
<g filter="url(#filter0_d_1186_94)">
<path d="M995.18 345.04C969.06 313.34 967.07 296.41 967.07 296.41C968.43 281.28 954.58 269.44 954.58 269.44C942.57 255.26 914.56 212.37 914.56 212.37C899.5 190.15 885.41 190.17 875.64 182.81C841.11 156.76 804.4 159.06 804.4 159.06C797.95 154.78 787.44 143.06 787.44 143.06C781.39 137.01 768.14 117.79 768.14 117.79C748.56 90.0497 728.87 88.6997 728.87 88.6997C668.11 84.9497 610 71.8597 610 71.8597C610 71.8597 574.12 61.6697 561.99 57.7397C545.41 52.3697 512.03 40.0797 494.62 36.4697C477.18 32.8597 422.62 29.1197 422.62 29.1197C416.79 29.7997 408.51 17.5697 371.08 21.9497C367.04 22.4197 361.05 28.2697 354.63 30.0797C322.53 39.1397 304.47 47.7097 304.47 47.7097C304.47 47.7097 292.39 52.8597 279.86 61.0197C269.75 67.6097 259.96 77.4597 251.27 78.0097C232.05 79.2197 189.51 86.0997 189.51 86.0997C189.51 86.0997 160.63 92.8897 151.3 96.1097C139.97 100.02 119.39 109.24 109.96 114.65C68.36 138.51 55.68 144.93 25 144.93V468.42C25 468.42 49.38 451.93 61.41 444.84C70.66 439.39 98.48 424.36 110.58 419.15C123.22 413.71 153.63 400.49 167.22 394.64C191.34 384.25 229.87 357.46 229.87 357.46C252.67 342.64 269.16 327.77 282.04 317.6C294.08 308.1 307.84 292.97 314.99 284.39C331.13 265.03 355.02 249.65 355.02 249.65C355.02 249.65 373.82 236.99 380.7 231.53C383.43 229.37 387.17 227.55 399.32 227C405.61 226.72 413.71 224.13 426.45 217.3C428.33 216.29 435.43 209.63 436.5 211.35C441.09 218.73 454.41 240.36 460.91 249.84C466.14 257.46 483.49 271.53 492.09 277.61C497.83 281.67 512.5 287.15 521.7 290.32C523.3 290.87 546.74 296.63 560.17 294.77C566.69 293.87 571.94 301.14 581.89 304.69C591.84 308.24 596.37 308.73 601.62 310.12C611.5 312.74 635.07 328.21 643.18 333.64C651.24 339.03 664.42 351.92 671.28 357.88C683.18 368.22 692.36 378.46 692.36 378.46C688.01 390.67 687.34 405.18 689.07 414.02C692.67 432.47 702.25 434.96 702.25 434.96C709.85 439.21 712.66 434.34 712.66 434.34C716.01 428.14 726.92 405.14 730.95 409.17C750.89 429.11 763.33 422.3 763.33 422.3C778.56 416.35 783.31 395.92 783.31 395.92C787.78 377.55 765.26 345.05 765.26 345.05C765.26 333.78 764.37 311.26 764.07 300C763.97 296.34 763.68 285.37 763.68 285.37C763.68 284.28 766.73 284.26 766.73 284.26C789.35 322.47 808.42 327.03 808.42 327.03C808.42 330.82 808.77 344.7 808.77 344.7C813.72 360.45 831.7 379.64 831.7 379.64C831.08 391 831.76 407.76 831.76 407.76C835.65 442.37 859.46 439.46 863.88 439.46C870.41 439.46 870.65 437.03 870.65 437.03C870.65 437.03 867.39 406.17 869.77 411.97C877.73 431.33 893.08 438.72 893.08 438.72C917.01 445.79 917.23 437.76 917.23 437.76C917.23 432.7 917.97 422.55 917.38 417.53C914.04 389.08 901.72 336.04 894.61 305.03C890.49 287.07 891.62 287.93 891.62 287.93C901.17 291.36 919.4 309.22 919.4 309.22C921.85 316.97 927.87 327.7 927.87 327.7C943.75 348.69 953.14 352.63 953.14 352.63C971.64 359.79 981 356.57 988.99 353.98C1001.39 349.95 995.18 345.04 995.18 345.04ZM706.75 288.3C706.74 288.37 706.73 288.44 706.72 288.5C706.73 288.65 706.71 288.8 706.69 288.96C706.69 289.16 706.7 289.35 706.69 289.55C706.61 290.86 706.6 290.43 706.6 290.14C706.59 290.68 706.4 291.19 706.1 291.62C706.1 291.62 706.1 291.62 706.1 291.63C706.1 291.64 706.09 291.64 706.09 291.65C705.81 292.17 705.32 292.59 704.85 292.81C704.69 292.88 704.53 292.93 704.37 292.97C703.94 293.29 703.43 293.49 702.89 293.49C702.59 293.49 702.31 293.44 702.05 293.37C701.76 293.33 701.49 293.26 701.23 293.15C700.95 293.08 700.69 292.99 700.41 292.87C700.37 292.86 700.33 292.84 700.25 292.8C700.31 292.83 700.35 292.84 700.41 292.87C700.57 292.93 700.42 292.83 700.18 292.69C699.78 292.58 699.43 292.42 699.12 292.2C699.05 292.17 698.98 292.14 698.91 292.11C698.95 292.13 698.93 292.14 698.79 292.09C698.14 291.83 697.98 291.76 698.32 291.87C698.55 291.95 698.49 291.92 698.15 291.78C698.07 291.74 698.01 291.69 697.94 291.65C697.84 291.6 697.74 291.54 697.65 291.48C697.66 291.49 697.67 291.5 697.68 291.51C697.54 291.43 697.42 291.34 697.31 291.25C697.12 291.16 697.17 291.18 697.3 291.24L697.29 291.23C697.21 291.19 697.11 291.14 697.01 291.09C696.4 290.84 696.26 290.77 696.63 290.91C696.71 290.94 696.75 290.95 696.78 290.97C696.75 290.96 696.73 290.94 696.71 290.93C696.67 290.91 696.63 290.89 696.56 290.87C696.54 290.87 696.52 290.86 696.5 290.86C695.83 290.58 695.7 290.52 696.11 290.69C696.15 290.71 696.16 290.71 696.19 290.72C696.18 290.72 696.18 290.71 696.17 290.7C696.07 290.66 695.93 290.6 695.72 290.51C695.64 290.45 695.62 290.43 695.63 290.42C695.42 290.33 695.2 290.26 695 290.16C694.5 289.9 695.42 290.34 694.99 290.11C694.72 289.97 694.4 289.9 694.13 289.74C693.83 289.56 693.58 289.33 693.31 289.12C693.2 289.06 693.08 288.98 692.98 288.9C692.85 288.83 692.72 288.77 692.6 288.69C692.4 288.59 692.44 288.59 692.71 288.68C692.7 288.68 692.7 288.67 692.7 288.67C692.52 288.59 692.34 288.52 692.17 288.44C691.94 288.3 691.73 288.1 691.53 287.92C691.55 287.93 691.57 287.94 691.59 287.95C691.13 287.61 690.72 287.22 690.31 286.84C690.29 286.82 690.26 286.8 690.24 286.79C690.1 286.69 689.96 286.57 689.84 286.45C689.52 286.2 689.27 285.92 689.06 285.6C688.92 285.43 688.79 285.27 688.68 285.09C688.66 285.06 688.63 285.04 688.6 285.01C688.08 284.75 687.6 284.42 687.27 283.93C687.07 283.82 686.91 283.66 686.77 283.47C686.59 283.35 686.43 283.21 686.28 283.04C686.11 282.93 685.97 282.83 685.96 282.83C685.84 282.72 685.73 282.59 685.62 282.48C685.31 282.17 684.97 281.88 684.69 281.53C684.64 281.5 684.61 281.49 684.62 281.5C684.67 281.54 684.72 281.58 684.76 281.61C684.67 281.55 684.64 281.52 684.62 281.5C684.37 281.3 684.05 281.02 683.87 280.94C683.92 280.96 683.95 280.98 683.99 280.99C683.85 280.92 683.67 280.82 683.56 280.72C683.46 280.63 683.36 280.53 683.27 280.42C683.06 280.23 682.89 280.01 682.73 279.78C682.31 279.45 681.99 279.1 681.6 278.71C681.42 278.54 681.23 278.35 681.06 278.16C681.02 278.12 680.82 277.84 680.7 277.68C680.64 277.62 680.57 277.57 680.52 277.5C680.36 277.35 680.25 277.18 680.15 276.99C679.94 276.83 679.32 276.01 679.23 275.9C679.11 275.76 678.46 274.94 678.7 275.27C679.04 275.73 678.53 275.07 678.38 274.83C678.34 274.76 678.3 274.69 678.26 274.62C677.6 273.86 677 273.23 676.52 272.42C676 271.79 675.57 271.06 675.12 270.39C674.76 269.85 674.39 269.32 674.14 268.64C674.07 268.54 674 268.44 673.94 268.33C673.77 268.07 673.86 268.18 673.78 268.06C673.49 267.64 673.17 267.24 672.88 266.82C672.83 266.76 672.77 266.72 672.72 266.66C672.65 266.57 672.38 266.09 672.28 265.9C672.24 265.83 672.2 265.76 672.16 265.69C671.95 265.35 671.75 265.01 671.54 264.65C671.27 264.2 670.9 263.88 670.63 263.42C670.54 263.26 670.5 263.22 670.49 263.22C670.68 263.65 670.46 263.22 670.49 263.22C670.47 263.18 670.46 263.16 670.44 263.1C670.17 262.75 670.18 262.75 670.46 263.1C670.33 262.93 670.2 262.75 670.07 262.58L669.82 261.97C670 262.43 670 262.45 669.83 262.02C669.81 261.95 669.8 261.89 669.78 261.83C669.74 261.75 669.72 261.67 669.68 261.59C669.64 261.52 669.62 261.45 669.59 261.37C669.52 261.22 669.46 261.06 669.42 260.9C669.41 260.89 669.41 260.87 669.4 260.86C669.38 260.85 669.36 260.84 669.34 260.83C668.63 260.4 668.48 259.7 668.48 258.7C668.48 257.31 669.3 256.13 670.66 256.13H670.71C670.72 256.13 670.73 256.12 670.74 256.11C670.76 256.1 670.79 256.08 670.81 256.07H670.82C670.95 256 671.09 255.94 671.24 255.9C671.38 255.83 671.52 255.78 671.67 255.74C671.72 255.72 671.81 255.69 671.95 255.64C672 255.61 672.05 255.58 672.09 255.55C672.19 255.48 672.3 255.43 672.41 255.37C672.64 255.24 672.88 255.13 673.18 255.03C672.44 255.3 673.46 254.9 673.68 254.81C673.69 254.81 673.69 254.81 673.69 254.8C673.94 254.66 674.19 254.57 674.45 254.52C674.53 254.49 674.61 254.46 674.7 254.44C674.8 254.4 674.91 254.36 675.01 254.32C674.99 254.33 674.96 254.35 674.94 254.36C675.16 254.28 675.4 254.23 675.67 254.21C676.01 254.1 676.23 254.02 675.84 254.1C676.03 254.02 676.23 253.98 676.43 253.95C676.46 253.94 676.5 253.93 676.54 253.92C676.92 253.73 677.32 253.6 677.78 253.53C678.32 253.33 678.86 253.15 679.44 253.05C679.64 253.02 679.84 252.99 680.04 252.96C680.11 252.95 680.42 252.89 680.58 252.86C680.54 252.87 680.51 252.87 680.47 252.87C680.73 252.82 680.7 252.83 680.58 252.86C680.83 252.82 681.08 252.81 681.33 252.79C681.58 252.72 681.83 252.69 682.08 252.7C682.28 252.67 682.59 252.62 682.61 252.62C682.64 252.62 682.75 252.61 682.83 252.61C683.03 252.58 683.39 252.54 683.43 252.53C683.85 252.47 682.58 252.62 683.63 252.48C683.82 252.45 683.96 252.44 684.14 252.43C684.36 252.42 684.57 252.43 684.79 252.42C685.11 252.36 685.43 252.33 685.78 252.34C685.92 252.35 686.02 252.35 686.05 252.36C686.35 252.32 686.65 252.26 686.96 252.25C687.68 252.23 688.41 252.21 689.13 252.25C689.1 252.25 690.55 252.32 689.78 252.34C690.03 252.33 690.27 252.34 690.52 252.34C691.6 252.34 692.67 252.33 693.74 252.44C693.15 252.38 693.8 252.41 694.02 252.42C694.52 252.45 695.05 252.49 695.56 252.6C696.02 252.61 696.48 252.65 696.93 252.77C697.38 252.78 697.82 252.82 698.3 253C698.35 253.01 698.41 253.02 698.46 253.03C698.75 253.04 699.03 253.07 699.29 253.12C699.6 253.13 699.9 253.16 700.18 253.21C700.61 253.22 701.03 253.27 701.43 253.42C701.62 253.48 701.81 253.56 701.99 253.66C702.06 253.68 702.12 253.7 702.19 253.72C702.34 253.76 702.48 253.82 702.62 253.89C702.83 253.94 703.03 254.01 703.22 254.1C703.55 254.22 703.85 254.39 704.11 254.64C704.13 254.66 704.15 254.67 704.17 254.69C704.22 254.73 704.27 254.77 704.32 254.81C704.36 254.84 704.4 254.88 704.44 254.91C704.53 254.99 704.61 255.08 704.69 255.17C705.09 255.5 705.39 255.94 705.56 256.46C705.66 256.69 705.73 256.93 705.77 257.19C705.81 257.31 705.84 257.43 705.86 257.56C705.89 257.65 705.91 257.75 705.93 257.84C706.06 258.15 706.14 258.48 706.16 258.87C706.17 258.98 706.17 259.05 706.18 259.12C706.23 259.31 706.21 259.34 706.18 259.12C706.16 259.06 706.14 258.99 706.11 258.9C706.06 258.82 706.02 258.74 705.97 258.66C706.29 259.48 706.25 260.33 706.24 261.29C706.24 261.33 706.24 261.35 706.24 261.38C706.28 261.78 706.32 262.14 706.32 262.54C706.32 262.81 706.32 263.09 706.32 263.36C706.33 262.79 706.35 263.63 706.36 263.78C706.42 264.38 706.41 264.98 706.4 265.58C706.41 264.6 706.49 266.07 706.49 266.05C706.51 266.31 706.48 266.58 706.5 266.84C706.59 268.21 706.66 269.13 706.66 270.51V279.54C706.66 280.86 706.81 281.75 706.83 282.99C706.85 283.9 706.83 284.81 706.83 285.72C706.97 286.57 706.99 287.48 706.75 288.3Z" fill="#E1E1E1" fill-opacity="0.1"/>
<path d="M1955.85 450.4C1942.69 450.4 1924.08 449.01 1915.08 448.21C1908.1 447.59 1894.19 445.43 1888.72 444.48C1882.33 443.37 1865.12 440.799 1857.55 439.799C1847.4 438.449 1823.77 432.499 1815.89 430.429C1804.58 427.449 1786.07 424.159 1777.23 421.679C1765.25 418.309 1757.04 411.08 1735.03 408.71C1722.4 407.35 1698.08 404.919 1682.1 407.389C1680.3 407.669 1678.75 410.059 1678.45 411.549C1677.42 416.819 1676.71 421.32 1662.33 426.22C1660.9 426.71 1656.51 427.349 1656.18 428.819C1655.92 429.969 1654.78 430.339 1654.15 431.329C1650.13 437.619 1646.08 440.809 1628.64 448.569C1625.68 449.889 1617.42 453.199 1614.25 456.679C1610.3 461.019 1601.37 471.489 1597.23 474.329C1590.33 479.059 1579.82 483.369 1573.44 484.179C1558.83 486.029 1546.36 495.67 1536.01 500.42C1534.44 501.14 1532.04 502.61 1531.62 503.29C1530.91 504.44 1526.13 505.01 1524.79 505.22C1510.47 507.53 1483.67 506.54 1469.78 506.54C1466.08 506.54 1475.76 522.96 1452.07 536.36C1450.27 537.38 1450.5 538.57 1451.54 540.36C1453.58 543.89 1454.76 554.47 1446.12 568.34C1445.7 569.01 1446.9 568.65 1448.83 574.11C1452.72 585.14 1451.51 603.98 1436.48 613.9C1431.14 617.42 1429.92 620.93 1414.12 618.48C1406.61 617.32 1398.76 612.66 1396.78 589.78C1395.6 576.18 1392.42 547.999 1395.56 534.699C1398.15 523.719 1412.22 505.839 1415.27 495.239C1416.45 491.139 1418.15 478.64 1414.58 476.4C1410.89 474.09 1407.34 481.279 1407.2 481.489C1399.03 493.799 1396.07 501.38 1375.22 514.78C1374.99 514.93 1371.96 517.53 1371.76 517.73C1370.36 519.15 1368.08 521.94 1367.81 526.52C1367.15 537.89 1358.53 555.42 1346.93 567.02C1346.22 567.73 1346.14 570.949 1346.14 570.949C1346.14 570.949 1346.26 582.699 1344.37 594.319C1342.75 604.249 1339.44 613.9 1336.22 618.23C1329.35 627.47 1320.53 628.03 1316.8 627.85C1313.13 627.67 1312.19 627.48 1310.36 627.09C1304.76 625.87 1300.37 623.269 1298.8 619.939C1298.46 619.209 1295.31 620.129 1294.85 620.799C1291.71 625.429 1282.21 630.059 1276.23 630.679C1272.24 631.099 1266.29 629.86 1263.51 628.72C1258.99 626.86 1252.72 622.14 1252.33 613.73C1252.33 613.73 1251.96 586.559 1250.21 573.079C1249.7 569.109 1249.57 564.789 1246.65 559.889C1246.31 559.309 1244.24 550.999 1244.83 544.259C1245.29 538.949 1245.96 527.569 1246.94 523.989C1248.82 517.129 1251.51 512.55 1252.43 508.77C1254.05 502.17 1253.02 487.55 1251.97 481.86C1251.61 479.91 1248.81 479.46 1247.86 479.34C1233.15 477.41 1226.28 458.579 1225.07 450.239C1224.47 446.109 1225.34 440.279 1226.7 437.319C1229.56 431.099 1236.32 428.44 1241.58 426.11C1255.37 420.01 1291.32 403.179 1293.7 398.319C1303.53 378.199 1313.51 374.46 1314.4 373.36C1315.06 372.54 1315.32 369.15 1314.27 369.15C1298.57 369.15 1289.16 351.929 1284.77 345.329C1284.45 344.849 1283.97 343.36 1283.41 343.47C1272.32 345.66 1258.17 342.879 1256.15 342.569C1240.47 340.159 1216.35 329.079 1202.54 327.689C1195.16 326.949 1197.01 328.649 1195.25 329.259C1176.29 335.879 1141.27 329.8 1133.98 331.92C1131.24 332.72 1131.11 333.9 1124.88 336.73C1113.56 341.88 1084.16 341.609 1070.68 339.999C1064.73 339.289 1061.34 337.74 1058.35 336.6C1041.11 330 1039.57 325.62 1036.86 319.28C1034.34 313.37 1038.18 307.28 1038.18 307.28C1038.18 307.28 1044.05 297.25 1056.01 296.02C1064.11 295.19 1063.43 297.599 1081.25 288.409C1084.8 286.579 1087.61 282.78 1096 282.21C1103.19 281.72 1122.14 280.939 1129.19 279.449C1131.91 278.879 1138.82 276.009 1140.28 275.049C1144.83 272.039 1150.99 268.16 1154.73 266.15C1160.91 262.83 1167.93 262.389 1167.93 262.389C1167.93 262.389 1218.74 262.859 1235.68 262.859C1243.61 262.859 1243.98 265.4 1246.81 265.96C1258.44 268.25 1264.13 268.03 1264.13 268.03C1264.13 268.03 1290.9 270.269 1305.75 265.509C1329.31 257.959 1346.24 267.959 1361.6 263.039C1394.7 252.429 1397.82 250.66 1409.35 245.25C1415.7 242.27 1434.93 233.75 1434.93 233.75C1434.93 233.75 1460.79 225.479 1482.96 225.479C1498.97 225.479 1508.68 219.88 1512.6 218.78C1539.47 211.25 1541.73 212.319 1548.22 212.319C1581.64 212.319 1595.55 212.779 1605.31 211.129C1614.07 209.639 1622.96 205.99 1622.96 205.99C1622.96 205.99 1656.08 191.85 1670.65 190.93C1688.51 189.8 1725.31 188.69 1740.53 185.78C1750.45 183.88 1770.12 175.26 1777.71 172.62C1783.42 170.63 1810.48 169.259 1814.68 168.859C1839.36 166.519 1888.16 167.62 1907.82 166.84C1916.35 166.51 1932.06 163.48 1936.85 162.28C1942.51 160.87 1946.62 158.839 1949.98 158.079C1951.66 157.699 1956.84 157.479 1956.84 157.479L1955.85 450.4Z" fill="#E1E1E1" fill-opacity="0.1"/>
</g>
<defs>
<filter id="filter0_d_1186_94" x="0" y="0" width="1981.84" height="659.763" filterUnits="userSpaceOnUse" color-interpolation-filters="sRGB">
<feFlood flood-opacity="0" result="BackgroundImageFix"/>
<feColorMatrix in="SourceAlpha" type="matrix" values="0 0 0 0 0 0 0 0 0 0 0 0 0 0 0 0 0 0 127 0" result="hardAlpha"/>
<feOffset dy="4"/>
<feGaussianBlur stdDeviation="12.5"/>
<feComposite in2="hardAlpha" operator="out"/>
<feColorMatrix type="matrix" values="0 0 0 0 0 0 0 0 0 0 0 0 0 0 0 0 0 0 0.25 0"/>
<feBlend mode="normal" in2="BackgroundImageFix" result="effect1_dropShadow_1186_94"/>
<feBlend mode="normal" in="SourceGraphic" in2="effect1_dropShadow_1186_94" result="shape"/>
</filter>
</defs>
</svg>
