<svg width="631" height="682" viewBox="0 0 631 682" fill="none" xmlns="http://www.w3.org/2000/svg">
<path d="M98.1202 190.278C103.928 190.278 108.637 185.189 108.637 178.912C108.637 172.634 103.928 167.545 98.1202 167.545C92.312 167.545 87.6035 172.634 87.6035 178.912C87.6035 185.189 92.312 190.278 98.1202 190.278Z" fill="#E1E1E1" fill-opacity="0.1"/>
<path d="M168.267 190.278C174.075 190.278 178.783 185.189 178.783 178.912C178.783 172.634 174.075 167.545 168.267 167.545C162.458 167.545 157.75 172.634 157.75 178.912C157.75 185.189 162.458 190.278 168.267 190.278Z" fill="#E1E1E1" fill-opacity="0.1"/>
<path d="M133.247 190.278C139.055 190.278 143.764 185.189 143.764 178.912C143.764 172.634 139.055 167.545 133.247 167.545C127.439 167.545 122.73 172.634 122.73 178.912C122.73 185.189 127.439 190.278 133.247 190.278Z" fill="#E1E1E1" fill-opacity="0.1"/>
<path d="M210.333 343.841L241.883 309.741C243.864 307.601 244.976 304.698 244.976 301.671C244.976 298.644 243.864 295.741 241.883 293.601C239.903 291.46 237.217 290.258 234.417 290.258C231.616 290.258 228.93 291.46 226.95 293.601L187.828 335.998C185.869 338.128 184.77 341.009 184.77 344.012C184.77 347.015 185.869 349.896 187.828 352.025L226.95 394.423C227.927 395.488 229.091 396.334 230.372 396.911C231.654 397.488 233.028 397.785 234.417 397.785C235.805 397.785 237.179 397.488 238.461 396.911C239.743 396.334 240.906 395.488 241.883 394.423C243.842 392.293 244.942 389.412 244.942 386.409C244.942 383.407 243.842 380.526 241.883 378.396L210.333 343.841Z" fill="#E1E1E1" fill-opacity="0.1"/>
<path d="M360.933 394.196C362.903 396.313 365.568 397.502 368.347 397.502C371.125 397.502 373.791 396.313 375.761 394.196L414.988 352.367C416.947 350.237 418.046 347.356 418.046 344.354C418.046 341.351 416.947 338.47 414.988 336.34L375.761 293.942C373.781 291.817 371.1 290.629 368.31 290.64C365.519 290.65 362.846 291.859 360.88 293.999C358.914 296.14 357.814 299.037 357.824 302.053C357.834 305.069 358.952 307.958 360.933 310.083L392.483 344.183L360.933 378.283C359.006 380.408 357.926 383.264 357.926 386.24C357.926 389.215 359.006 392.072 360.933 394.196Z" fill="#E1E1E1" fill-opacity="0.1"/>
<path d="M326.016 297.238C324.816 296.487 323.49 295.999 322.114 295.804C320.739 295.609 319.341 295.709 318.002 296.1C316.663 296.491 315.409 297.165 314.311 298.082C313.214 298.999 312.295 300.141 311.608 301.444L272.802 375.1C272.041 376.394 271.53 377.84 271.3 379.353C271.069 380.866 271.125 382.413 271.462 383.902C271.8 385.391 272.412 386.791 273.263 388.017C274.114 389.244 275.186 390.272 276.414 391.039C277.642 391.806 279.001 392.297 280.409 392.482C281.817 392.666 283.245 392.542 284.607 392.114C285.969 391.687 287.237 390.967 288.335 389.996C289.433 389.026 290.338 387.825 290.995 386.467L330.223 313.152C330.956 311.82 331.43 310.34 331.616 308.803C331.801 307.265 331.693 305.704 331.299 304.213C330.905 302.723 330.233 301.335 329.324 300.135C328.416 298.936 327.29 297.95 326.016 297.238Z" fill="#E1E1E1" fill-opacity="0.1"/>
<path d="M587.462 454.666C586.841 454.661 586.237 454.452 585.73 454.066C585.222 453.68 584.836 453.136 584.622 452.507C580.437 440.609 574.507 429.517 567.059 419.657C566.707 419.106 566.518 418.452 566.518 417.781C566.518 417.111 566.707 416.457 567.059 415.906C570.262 409.906 571.131 402.777 569.475 396.085C567.818 389.393 563.772 383.685 558.225 380.215L550.338 375.1V167.544C550.338 158.5 547.014 149.827 541.097 143.432C535.18 137.037 527.155 133.444 518.788 133.444H84.134C75.7664 133.444 67.7415 137.037 61.8248 143.432C55.908 149.827 52.584 158.5 52.584 167.544V455.576C52.6117 462.591 55.2022 469.31 59.7916 474.27C64.3809 479.23 70.5975 482.03 77.0878 482.06H220.851L210.334 524.117H196.347C186.104 524.124 176.162 527.864 168.128 534.732C160.094 541.601 154.437 551.196 152.072 561.968H126.201C123.411 561.968 120.737 563.165 118.764 565.297C116.792 567.429 115.684 570.32 115.684 573.334C115.684 576.349 116.792 579.24 118.764 581.372C120.737 583.503 123.411 584.701 126.201 584.701H394.06C393.882 587.417 394.131 590.146 394.796 592.771C395.585 596.106 396.988 599.234 398.921 601.968C400.855 604.702 403.279 606.987 406.049 608.685L428.239 622.552C430.994 624.261 434.034 625.368 437.185 625.807C440.336 626.247 443.536 626.011 446.602 625.114C449.669 624.217 452.542 622.676 455.057 620.578C457.572 618.481 459.681 615.868 461.262 612.89C461.602 612.31 462.093 611.851 462.672 611.568C463.251 611.285 463.894 611.192 464.522 611.299C476.074 613.459 487.884 613.459 499.437 611.299C500.077 611.187 500.733 611.29 501.316 611.595C501.899 611.901 502.382 612.392 502.697 613.004C504.841 616.971 507.914 620.257 511.606 622.532C515.299 624.807 519.48 625.99 523.731 625.962C527.971 626.006 532.145 624.829 535.825 622.552L558.015 608.685C560.77 606.967 563.183 604.676 565.114 601.945C567.046 599.213 568.457 596.096 569.268 592.771C570.105 589.467 570.323 586.015 569.907 582.618C569.492 579.222 568.452 575.949 566.849 572.993C566.487 572.425 566.294 571.751 566.294 571.061C566.294 570.371 566.487 569.697 566.849 569.129C574.274 559.293 580.202 548.243 584.412 536.393C584.612 535.754 584.995 535.201 585.506 534.812C586.016 534.424 586.627 534.221 587.251 534.233C593.658 534.203 599.794 531.439 604.324 526.543C608.855 521.646 611.412 515.014 611.44 508.09V480.355C611.33 473.54 608.762 467.04 604.283 462.241C599.804 457.443 593.768 454.725 587.462 454.666ZM73.6173 167.544C73.6173 164.53 74.7253 161.639 76.6976 159.507C78.6698 157.375 81.3448 156.178 84.134 156.178H518.788C521.577 156.178 524.252 157.375 526.224 159.507C528.196 161.639 529.305 164.53 529.305 167.544V201.644H73.6173V167.544ZM77.0878 459.327C76.6321 459.327 76.1808 459.23 75.7597 459.041C75.3387 458.853 74.9561 458.576 74.6338 458.228C74.3115 457.88 74.0559 457.466 73.8815 457.011C73.7071 456.556 73.6173 456.068 73.6173 455.576V224.378H529.305V363.733C524.328 362.304 519.059 362.637 514.27 364.683C509.481 366.729 505.425 370.38 502.697 375.1C502.37 375.66 501.894 376.101 501.331 376.365C500.768 376.628 500.145 376.703 499.542 376.577C487.981 374.531 476.188 374.531 464.627 376.577C464.024 376.719 463.395 376.653 462.829 376.388C462.263 376.123 461.788 375.672 461.472 375.1C459.892 372.12 457.782 369.507 455.264 367.413C452.746 365.318 449.869 363.783 446.8 362.895C443.73 362.008 440.529 361.786 437.379 362.241C434.23 362.697 431.195 363.822 428.45 365.552L406.26 379.419C403.497 381.099 401.076 383.364 399.143 386.079C397.209 388.794 395.802 391.902 395.007 395.219C393.325 401.92 394.156 409.068 397.32 415.11C397.704 415.648 397.912 416.307 397.912 416.986C397.912 417.665 397.704 418.324 397.32 418.861C389.872 428.721 383.942 439.813 379.757 451.711C379.544 452.34 379.157 452.884 378.65 453.27C378.142 453.656 377.538 453.866 376.918 453.871C371.767 453.879 366.754 455.671 362.615 458.986L77.0878 459.327ZM357.567 524.117H231.367L241.884 482.06H352.309V508.09C352.376 513.913 354.225 519.548 357.567 524.117ZM196.452 546.85H383.649C386.052 552.09 388.794 557.142 391.852 561.968H174.262C176.247 557.451 179.375 553.635 183.283 550.96C187.192 548.285 191.721 546.86 196.347 546.85H196.452ZM590.617 508.09C590.617 508.994 590.284 509.861 589.693 510.501C589.101 511.14 588.298 511.5 587.462 511.5C582.563 511.513 577.782 513.126 573.747 516.128C569.712 519.131 566.611 523.381 564.851 528.322C561.489 537.906 556.732 546.847 550.758 554.807C547.678 558.919 545.82 563.941 545.425 569.214C545.031 574.488 546.12 579.767 548.55 584.36C548.719 584.751 548.807 585.178 548.807 585.61C548.807 586.042 548.719 586.469 548.55 586.861C548.458 587.312 548.28 587.738 548.026 588.11C547.773 588.482 547.449 588.792 547.078 589.02L525.203 602.433C524.838 602.653 524.436 602.792 524.02 602.842C523.605 602.892 523.184 602.853 522.783 602.726C522.382 602.599 522.008 602.387 521.683 602.103C521.359 601.818 521.089 601.467 520.891 601.069C518.405 596.488 514.691 592.83 510.241 590.578C505.792 588.325 500.814 587.584 495.967 588.452C486.709 590.157 477.25 590.157 467.992 588.452C463.134 587.594 458.149 588.353 453.698 590.626C449.247 592.9 445.54 596.581 443.068 601.183C442.631 601.945 441.942 602.498 441.141 602.731C440.34 602.963 439.487 602.856 438.756 602.433L416.566 588.566C416.194 588.337 415.871 588.027 415.617 587.655C415.364 587.283 415.185 586.857 415.094 586.406C414.924 586.014 414.837 585.588 414.837 585.156C414.837 584.724 414.924 584.297 415.094 583.905C417.495 579.303 418.568 574.03 418.174 568.763C417.781 563.497 415.939 558.478 412.885 554.352C406.858 546.412 402.063 537.468 398.687 527.868C396.923 523.057 393.867 518.927 389.912 516.009C385.958 513.092 381.285 511.522 376.497 511.5C375.661 511.5 374.858 511.14 374.266 510.501C373.675 509.861 373.342 508.994 373.342 508.09V480.355C373.328 479.903 373.399 479.452 373.553 479.031C373.706 478.611 373.938 478.228 374.234 477.908C374.53 477.589 374.883 477.338 375.273 477.172C375.662 477.006 376.079 476.929 376.497 476.945C381.381 476.925 386.146 475.307 390.163 472.304C394.18 469.301 397.262 465.054 399.003 460.122C402.355 450.51 407.152 441.561 413.2 433.638C416.254 429.512 418.096 424.493 418.49 419.227C418.883 413.96 417.81 408.687 415.409 404.085C415.238 403.674 415.149 403.228 415.149 402.777C415.149 402.327 415.238 401.881 415.409 401.47C415.494 401.031 415.671 400.618 415.927 400.264C416.182 399.909 416.508 399.622 416.881 399.424L439.071 385.557C439.588 385.402 440.133 385.402 440.649 385.557C441.175 385.564 441.692 385.714 442.151 385.991C442.61 386.269 442.998 386.667 443.278 387.148C445.761 391.739 449.469 395.411 453.917 397.683C458.365 399.955 463.345 400.72 468.203 399.879C477.461 398.174 486.919 398.174 496.177 399.879C501.067 400.593 506.042 399.694 510.452 397.301C514.862 394.908 518.5 391.132 520.891 386.466C521.097 386.091 521.369 385.764 521.692 385.504C522.016 385.243 522.384 385.055 522.775 384.949C523.166 384.844 523.573 384.823 523.972 384.888C524.37 384.953 524.753 385.103 525.098 385.33L547.288 399.197C547.661 399.395 547.988 399.682 548.243 400.036C548.498 400.391 548.675 400.803 548.76 401.243C548.932 401.654 549.02 402.099 549.02 402.55C549.02 403.001 548.932 403.446 548.76 403.857C546.34 408.433 545.255 413.693 545.649 418.947C546.044 424.2 547.898 429.202 550.969 433.297C556.944 441.297 561.701 450.276 565.061 459.895C566.719 464.919 569.747 469.281 573.747 472.407C577.746 475.532 582.528 477.273 587.462 477.4C587.88 477.384 588.297 477.461 588.686 477.627C589.076 477.793 589.429 478.043 589.725 478.363C590.021 478.683 590.253 479.065 590.406 479.486C590.56 479.907 590.631 480.358 590.617 480.81V508.09Z" fill="#E1E1E1" fill-opacity="0.1"/>
<path d="M481.978 442.618C472.535 442.618 463.304 445.645 455.452 451.315C447.6 456.986 441.481 465.045 437.867 474.475C434.253 483.904 433.308 494.28 435.15 504.29C436.992 514.301 441.539 523.496 448.217 530.713C454.894 537.93 463.402 542.845 472.663 544.836C481.925 546.827 491.525 545.805 500.25 541.899C508.974 537.993 516.431 531.379 521.677 522.893C526.924 514.407 529.724 504.429 529.724 494.223C529.724 480.536 524.693 467.411 515.739 457.733C506.785 448.055 494.641 442.618 481.978 442.618ZM481.978 523.094C476.695 523.094 471.53 521.401 467.138 518.228C462.745 515.056 459.321 510.547 457.299 505.271C455.277 499.996 454.748 494.191 455.779 488.59C456.81 482.99 459.354 477.845 463.09 473.808C466.825 469.77 471.585 467.02 476.767 465.906C481.948 464.792 487.319 465.364 492.2 467.549C497.082 469.734 501.253 473.435 504.189 478.183C507.124 482.931 508.69 488.513 508.69 494.223C508.635 501.841 505.796 509.126 500.793 514.491C495.789 519.857 489.026 522.867 481.978 522.867V523.094Z" fill="#E1E1E1" fill-opacity="0.1"/>
</svg>
